<?xml version="1.0" encoding="UTF-8" standalone="no"?>
<!-- Generator: Adobe Illustrator 16.0.0, SVG Export Plug-In . SVG Version: 6.00 Build 0)  -->

<svg
   xmlns:dc="http://purl.org/dc/elements/1.1/"
   xmlns:cc="http://creativecommons.org/ns#"
   xmlns:rdf="http://www.w3.org/1999/02/22-rdf-syntax-ns#"
   xmlns:svg="http://www.w3.org/2000/svg"
   xmlns="http://www.w3.org/2000/svg"
   xmlns:sodipodi="http://sodipodi.sourceforge.net/DTD/sodipodi-0.dtd"
   xmlns:inkscape="http://www.inkscape.org/namespaces/inkscape"
   version="1.1"
   id="Layer_1"
   x="0px"
   y="0px"
   width="126px"
   height="126px"
   viewBox="0 0 126 126"
   enable-background="new 0 0 126 126"
   xml:space="preserve"
   inkscape:version="0.48.4 r9939"
   sodipodi:docname="map.svg"><metadata
     id="metadata9"><rdf:RDF><cc:Work
         rdf:about=""><dc:format>image/svg+xml</dc:format><dc:type
           rdf:resource="http://purl.org/dc/dcmitype/StillImage" /><dc:title></dc:title></cc:Work></rdf:RDF></metadata><defs
     id="defs7" /><sodipodi:namedview
     pagecolor="#ffffff"
     bordercolor="#666666"
     borderopacity="1"
     objecttolerance="10"
     gridtolerance="10"
     guidetolerance="10"
     inkscape:pageopacity="0"
     inkscape:pageshadow="2"
     inkscape:window-width="1920"
     inkscape:window-height="1033"
     id="namedview5"
     showgrid="false"
     inkscape:zoom="6.5714286"
     inkscape:cx="38.043478"
     inkscape:cy="63"
     inkscape:window-x="-2"
     inkscape:window-y="24"
     inkscape:window-maximized="1"
     inkscape:current-layer="Layer_1" /><path
     d="m 102.75048,45.977522 -2.449,0 0,-11.818 c 0,-0.074 -0.012,-0.148 -0.021,-0.223 -0.004,-0.469 -0.154,-0.93 -0.475002,-1.295 l -19.666,-22.465 c -0.006,-0.006 -0.012,-0.008 -0.016,-0.014 -0.117,-0.131 -0.254,-0.2400003 -0.398,-0.3340003 -0.043,-0.029 -0.086,-0.053 -0.131,-0.078 -0.125,-0.068 -0.258,-0.125 -0.395,-0.166 -0.037,-0.01 -0.07,-0.025 -0.107,-0.035 -0.148,-0.035 -0.303,-0.057 -0.459,-0.057 l -48.332,0 c -2.207,0 -4,1.7950003 -4,4.0000003 l 0,32.484 -2.449,0 c -3.157,0 -5.717,2.559 -5.717,5.717 l 0,29.73 c 0,3.156 2.56,5.717 5.717,5.717 l 2.449,0 0,20.351998 c 0,2.205 1.793,4 4,4 l 66,0 c 2.205,0 4.000002,-1.795 4.000002,-4 l 0,-20.350998 2.449,0 c 3.157,0 5.717,-2.561 5.717,-5.717 l 0,-29.73 c 0,-3.158 -2.56,-5.717 -5.717,-5.717 z m -72.449002,-32.484 46.332,0 0,20.465 c 0,1.105 0.896,2 2,2 l 17.668,0 0,10.02 -66,0 z m 66,92.915998 -66,0 0,-19.267998 66,0 z"
     id="path3"
     inkscape:connector-curvature="0"
     sodipodi:nodetypes="scsccccccccssscsssscsssscssssccssccccccccc" /><text
     xml:space="preserve"
     style="font-size:31.29888323px;font-style:normal;font-variant:normal;font-weight:bold;font-stretch:normal;text-align:center;line-height:125%;letter-spacing:0px;word-spacing:0px;writing-mode:lr;text-anchor:middle;fill:#ffffff;fill-opacity:1;stroke:none;font-family:Sans;-inkscape-font-specification:Sans Bold"
     x="64.207809"
     y="75.649422"
     id="text3005"
     sodipodi:linespacing="125%"
     transform="scale(0.98043802,1.0199523)"><tspan
       sodipodi:role="line"
       id="tspan3819">DITA</tspan></text>
</svg>